<svg width="20" height="22" xmlns="http://www.w3.org/2000/svg"><g transform="translate(0 .5)" fill="#FFF"><path d="M13.463 6.83c.657.722.921 1.719.708 2.672-.06.315.144.62.458.685a.59.59 0 0 0 .71-.427c.323-1.371.032-2.807-.914-3.82-.946-1.012-2.363-1.387-3.76-1.142a.59.59 0 0 0-.457.685c.052.311.339.526.651.487.956-.15 1.925.17 2.604.86z"/><path d="M15.045 5.34c1.142 1.209 1.478 2.918 1.072 4.57a.597.597 0 0 0 .436.732.594.594 0 0 0 .709-.418c.567-2.078.171-4.254-1.262-5.78-1.433-1.527-3.59-2.058-5.691-1.6a.594.594 0 0 0-.458.685.597.597 0 0 0 .707.478c1.66-.313 3.346.121 4.487 1.332z"/><path d="M16.546 3.92c1.6 1.694 2.04 4.114 1.408 6.4a.592.592 0 0 0 .432.736.594.594 0 0 0 .707-.411c.8-2.727.301-5.616-1.6-7.632C15.59.997 12.74.345 9.97.985a.594.594 0 0 0-.457.686.592.592 0 0 0 .711.475c2.347-.5 4.725.08 6.322 1.774zm1.477 11.7c-1.269-1.037-3.817-3-4.014-3.106-.816-.434-1.972 1.65-2.302 2.18-.795 1.093-1.696.435-2.022.131v-.016c-1.422-1.323-3.248-3.673-4.24-5.001-.992-1.328-.229-2.043-.016-2.206l.045-.034c.19-.13.372-.27.547-.42a5.506 5.506 0 0 0 1.522-2.316 1.13 1.13 0 0 0-.149-1.058L4.955.457A1.122 1.122 0 0 0 3.376.23C2.398.967.987 2.259.496 3.854c-.12.4-.21.81-.267 1.225A8.144 8.144 0 0 0 .487 8.05a14.107 14.107 0 0 0 1.35 3.36 18.085 18.085 0 0 0 2.853 3.886s1.225 1.371 2.2 2.263c.84.77 2.237 2.02 4.342 2.651.827.25 1.762.517 2.91.259a5.28 5.28 0 0 0 2.199-1.164 8.107 8.107 0 0 0 1.945-2.258 1.118 1.118 0 0 0-.263-1.426z"/></g></svg>