<svg width="140" height="140" viewBox="0 0 140 140" fill="none" xmlns="http://www.w3.org/2000/svg">
<rect x="12.5" y="1.5" width="117" height="137" fill="#F37043"/>
<path fill-rule="evenodd" clip-rule="evenodd" d="M107 122H0V120H107V122Z" fill="#131211"/>
<path fill-rule="evenodd" clip-rule="evenodd" d="M8.90101e-07 118L26 118L26 120L7.15256e-07 120L8.90101e-07 118Z" fill="#F37043"/>
<path d="M75.5354 61.349C81.8173 48.0306 59.5708 36.8402 52.3431 40.8126C55.326 52.1408 62.8012 71.2792 70.8632 66.8405C72.0099 73.5827 71.8999 83.6005 71.092 93.9967C62.8654 85.9665 49.1387 81.6795 43 85.0534C46.4253 98.0617 53.9995 118.283 62.8216 122.403C64.2558 123.073 65.723 123.317 67.2106 123.036C65.8423 129.988 64 135.297 62 139.771C68.5 139.771 72 140.286 75.5354 139.771C77.916 135.42 78.793 114.662 78.5668 97.2704C87.6779 105.47 102.837 83.785 110 70.3783C104.135 64.7496 85.8928 66.3611 77.675 74.9888C77.156 67.9762 76.451 62.8527 75.6411 61.5205C75.6066 61.4637 75.5714 61.4066 75.5354 61.349Z" fill="#FFDAB8"/>
<path fill-rule="evenodd" clip-rule="evenodd" d="M125 125L140 125L140 127L125 127L125 125Z" fill="#F37043"/>
<rect x="12.5" y="1.5" width="117" height="137" stroke="#F37043" stroke-width="3"/>
</svg>
