<svg width="140" height="140" viewBox="0 0 140 140" fill="none" xmlns="http://www.w3.org/2000/svg">
<rect x="12.5" y="1.5" width="117" height="137" fill="#F37043"/>
<path fill-rule="evenodd" clip-rule="evenodd" d="M140 114L27 114L27 112L140 112L140 114Z" fill="#131211"/>
<path fill-rule="evenodd" clip-rule="evenodd" d="M112 129L11 129L11 127L112 127L112 129Z" fill="#131211"/>
<path fill-rule="evenodd" clip-rule="evenodd" d="M125 110L140 110L140 112L125 112L125 110Z" fill="#F37043"/>
<path fill-rule="evenodd" clip-rule="evenodd" d="M6.51682e-07 125L15 125L15 127L4.76837e-07 127L6.51682e-07 125Z" fill="#F37043"/>
<path d="M39.0548 80.1575C39.0185 79.5771 39 78.991 39 78.4V74.95C39 59.8659 47.4178 47.0427 59.1459 42.3543C55.7411 39.0155 51.3252 37 46.5 37C35.7304 37 27 47.04 27 59.425C27 68.7778 31.9788 76.7933 39.0548 80.1575Z" fill="#FFDAB8"/>
<path fill-rule="evenodd" clip-rule="evenodd" d="M100.5 81.85C111.27 81.85 120 71.81 120 59.425C120 47.04 111.27 37 100.5 37C90.4768 37 82.2202 45.6958 81.1238 56.8847C81.0417 56.0188 81 55.1395 81 54.25C81 52.8619 81.1018 51.5008 81.2974 50.1767C81.5112 48.728 81.8379 47.323 82.2656 45.972C79.0635 44.6311 75.6057 43.9 72 43.9H69C52.4312 43.9 39 59.3475 39 78.4V81.85C39 95.1884 48.4021 106 60 106H81C91.8896 106 100.844 96.4721 101.897 84.2657C99.9785 83.5952 98.176 82.6182 96.5332 81.3851C97.8142 81.6883 99.1406 81.85 100.5 81.85ZM53.0054 78.9525C53.5942 76.584 55.4773 74.95 57.6204 74.95C59.8835 74.95 61.8391 76.7693 62.313 79.313L64.1792 89.3295C65.1167 94.3596 61.7834 99.1 57.312 99.1C52.645 99.1 49.2759 93.9621 50.5583 88.8039L53.0054 78.9525Z" fill="#FFDAB8"/>
<path d="M46.3898 99.0111C51.9294 114.312 41.0638 122.498 35 140H124C124 129.837 100.486 98.9828 97.4539 95.2982C94.4221 91.6136 68.6236 96.7082 46.3898 99.0111Z" fill="#FFDAB8"/>
<rect x="12.5" y="1.5" width="117" height="137" stroke="#F37043" stroke-width="3"/>
</svg>
